<svg width="86" height="86" viewBox="0 0 86 86" fill="none" xmlns="http://www.w3.org/2000/svg">
<rect width="86" height="86" fill="#E1E4FF"/>
<path fill-rule="evenodd" clip-rule="evenodd" d="M19.0254 43.0991C19.0254 30.4363 29.1452 19.0254 43.1111 19.0254C56.7644 19.0254 67.1006 30.2197 67.1006 43.0269C67.1006 57.8803 54.9856 67.1006 43.063 67.1006C39.1208 67.1006 34.746 66.0413 31.2365 63.971C30.0106 63.2247 28.977 62.671 27.6549 63.1043L22.7993 64.5488C21.5734 64.9339 20.4676 63.971 20.8282 62.671L22.4387 57.2785C22.7031 56.5322 22.6551 55.7378 22.2705 55.1119C20.2032 51.3082 19.0254 47.1435 19.0254 43.0991ZM39.9383 43.0991C39.9383 44.8083 41.3085 46.1805 43.0151 46.2046C44.7218 46.2046 46.092 44.8083 46.092 43.1232C46.092 41.414 44.7218 40.0418 43.0151 40.0418C41.3325 40.0177 39.9383 41.414 39.9383 43.0991ZM51.0204 43.1231C51.0204 44.8083 52.3906 46.2046 54.0972 46.2046C55.8039 46.2046 57.174 44.8083 57.174 43.1231C57.174 41.4139 55.8039 40.0417 54.0972 40.0417C52.3906 40.0417 51.0204 41.4139 51.0204 43.1231ZM31.9329 46.2046C30.2503 46.2046 28.8561 44.8083 28.8561 43.1231C28.8561 41.4139 30.2263 40.0417 31.9329 40.0417C33.6396 40.0417 35.0097 41.4139 35.0097 43.1231C35.0097 44.8083 33.6396 46.1805 31.9329 46.2046Z" fill="#596AFF"/>
</svg>
