<svg width="86" height="86" viewBox="0 0 86 86" fill="none" xmlns="http://www.w3.org/2000/svg">
<rect width="86" height="86" fill="#E1E4FF"/>
<path d="M36.9749 57.2686C35.8526 57.2686 34.9455 56.3595 34.9455 55.2393C34.9455 54.119 35.8526 53.2099 36.9749 53.2099C38.4604 53.2099 39.8342 53.6401 41.0336 54.3382V36.916C39.3391 38.2148 37.2407 39.0042 34.9455 39.0042C33.8232 39.0042 32.9161 38.0951 32.9161 36.9749C32.9161 35.8546 33.8232 34.9455 34.9455 34.9455C38.3021 34.9455 41.0336 32.2139 41.0336 28.8573V22.7692C41.0336 20.5267 39.2173 18.7104 36.9749 18.7104C34.7324 18.7104 32.9161 20.5267 32.9161 22.7692C32.9161 22.8037 32.9262 22.8382 32.9262 22.8727C32.5853 22.8341 32.2525 22.7692 31.9014 22.7692C26.8584 22.7692 22.7692 26.8584 22.7692 31.9014C22.7692 32.8572 22.9559 33.7603 23.2299 34.6248C20.5064 36.4452 18.7104 39.542 18.7104 43.063C18.7104 46.584 20.5064 49.6808 23.2299 51.5011C22.9559 52.3657 22.7692 53.2687 22.7692 54.2246C22.7692 58.953 26.3754 62.7946 30.9801 63.2634C31.4144 65.6236 33.4742 67.4155 35.9602 67.4155C38.7627 67.4155 41.0336 65.1447 41.0336 62.3421V61.3274C41.0336 59.089 39.2133 57.2686 36.9749 57.2686ZM59.298 55.2393C58.1758 55.2393 57.2686 54.3301 57.2686 53.2099C57.2686 52.0897 58.1758 51.1805 59.298 51.1805C63.7748 51.1805 67.4155 47.5398 67.4155 43.063C67.4155 39.542 65.6195 36.4452 62.8961 34.6248C63.1701 33.7603 63.3568 32.8572 63.3568 31.9014C63.3568 26.8584 59.2676 22.7692 54.2246 22.7692C53.8735 22.7692 53.5407 22.8341 53.1997 22.8727C53.1997 22.8382 53.2099 22.8037 53.2099 22.7692C53.2099 20.5267 51.3936 18.7104 49.1511 18.7104C46.9087 18.7104 45.0924 20.5267 45.0924 22.7692V28.8573C45.0924 32.2139 47.8239 34.9455 51.1805 34.9455C52.3027 34.9455 53.2099 35.8546 53.2099 36.9749C53.2099 38.0951 52.3027 39.0042 51.1805 39.0042C48.8853 39.0042 46.7869 38.2148 45.0924 36.918V62.3421C45.0924 65.1447 47.3632 67.4155 50.1658 67.4155C52.6518 67.4155 54.7116 65.6236 55.1459 63.2634C59.645 62.8048 63.166 59.1194 63.3263 54.5391C62.0641 54.9856 60.7125 55.2393 59.298 55.2393Z" fill="#4457FF"/>
</svg>
