<svg width="86" height="86" viewBox="0 0 86 86" fill="none" xmlns="http://www.w3.org/2000/svg">
<rect width="86" height="86" fill="#FFE7DA"/>
<path fill-rule="evenodd" clip-rule="evenodd" d="M39.2573 45.5819C46.2158 45.5819 51.7936 39.8292 51.7936 32.6525C51.7936 25.4759 46.2158 19.7231 39.2573 19.7231C32.2989 19.7231 26.721 25.4759 26.721 32.6525C26.721 39.8292 32.2989 45.5819 39.2573 45.5819ZM39.2586 49.7234C29.0384 49.7234 20.3125 51.3872 20.3125 58.0344C20.3125 64.679 28.9853 66.4028 39.2586 66.4028C49.4762 66.4028 58.2046 64.739 58.2046 58.0918C58.2046 51.4445 49.5319 49.7234 39.2586 49.7234ZM65.5268 37.9537H68.5659C69.8169 37.9537 70.8369 39.0068 70.8369 40.2985C70.8369 41.5901 69.8169 42.6432 68.5659 42.6432H65.5268V45.6713C65.5268 46.9629 64.5094 48.016 63.2558 48.016C62.0049 48.016 60.9849 46.9629 60.9849 45.6713V42.6432H57.9509C56.6974 42.6432 55.68 41.5901 55.68 40.2985C55.68 39.0068 56.6974 37.9537 57.9509 37.9537H60.9849V34.9283C60.9849 33.6367 62.0049 32.5836 63.2558 32.5836C64.5094 32.5836 65.5268 33.6367 65.5268 34.9283V37.9537Z" fill="#FF9054"/>
</svg>
